<?xml version="1.0" standalone="no"?>
<!DOCTYPE svg PUBLIC "-//W3C//DTD SVG 20010904//EN"
 "http://www.w3.org/TR/2001/REC-SVG-20010904/DTD/svg10.dtd">
<svg version="1.0" xmlns="http://www.w3.org/2000/svg"
 width="512.000000pt" height="512.000000pt" viewBox="0 0 512.000000 512.000000"
 preserveAspectRatio="xMidYMid meet">

<g transform="translate(0.000000,512.000000) scale(0.100000,-0.100000)"
fill="#000000" stroke="none">
<path d="M2033 3986 l-973 -171 0 -1245 0 -1245 968 -169 c532 -94 977 -172
990 -174 l22 -4 0 1591 c0 1509 -1 1591 -17 1590 -10 -1 -456 -78 -990 -173z
m225 -1208 c78 -205 178 -467 221 -581 l79 -208 -120 3 -120 3 -52 140 -53
140 -200 3 -200 2 -53 -145 -53 -145 -119 0 c-110 0 -120 1 -113 18 8 21 389
1016 417 1090 l19 52 103 0 103 0 141 -372z"/>
<path d="M1950 2709 c-34 -96 -71 -195 -81 -221 l-19 -48 160 0 159 0 -65 188
c-36 103 -71 202 -78 221 -12 33 -12 32 -76 -140z"/>
<path d="M3212 3168 l3 -263 47 -6 c61 -9 140 -53 185 -102 116 -129 118 -320
3 -450 -44 -50 -112 -89 -180 -103 l-55 -11 -3 -261 -2 -262 95 0 95 0 0 113
0 113 56 24 56 23 79 -79 79 -79 140 140 140 140 -79 80 -78 80 21 53 21 52
112 0 113 0 0 200 0 200 -113 0 -112 0 -21 53 -21 52 78 80 79 80 -140 140
-140 140 -79 -79 -79 -79 -56 23 -56 24 0 113 0 113 -95 0 -95 0 2 -262z"/>
<path d="M3210 2570 l0 -182 32 6 c183 36 183 316 0 352 l-32 7 0 -183z"/>
</g>
</svg>
